<svg id="Laag_1" data-name="Laag 1" xmlns="http://www.w3.org/2000/svg" viewBox="0 0 214.12 181.49"><defs><style>.cls-1{fill:none;}.cls-2{fill:#95c11f;}</style></defs><path class="cls-1" d="M1128.68,155.23H914.56V-26.26h214.12ZM1098.06,53c2.16,9.88,1.36,19.32-.44,28.77-4.32,22.69-17.09,38.27-38.94,46.2-17.78,6.46-36,6.48-54.23,2.72-13.21-2.72-25.67-7.64-34.41-18.54-15.22-19-18.13-41.2-13.32-64,6.64-31.42,33.63-52.92,66.17-54.39,16.7-.76,32.36,2.74,45.93,13.19a7.27,7.27,0,0,0,2.12.76l1.18-1.31c-1.51-1.5-2.79-3.38-4.56-4.43-21.58-12.81-44.34-16.39-68-6.71C978.24,4,961.87,18.17,955,41.13a86.87,86.87,0,0,0-1.66,42.22c4.59,23,16.78,39.89,40,47.68,17.88,6,36.16,6.57,54.33,3.43,19.13-3.3,35.06-12.77,45.06-30.16a72.9,72.9,0,0,0,9.63-39.55c-.25-7.24-2.39-15,4-21.06.64-.6.77-1.83,1-2.8,2.38-11.62-3.78-19.45-11.75-26.54-2.9-2.57-5.57-5.41-9.19-9-2.13,5.31-5,11-6.71,17C1075.48,37.79,1083.44,50.86,1098.06,53Zm-85.8-22.4c-.71,6-1.5,11.62-2,17.25s-.84,11.38-1,17.08c0,1.17.41,2.93,1.26,3.48,4.51,2.94,11.77-.63,12.73-6,.34-1.93,1-3.8,1.52-5.82,2.86-.35,5.52-.64,8.18-1,6.82-.94,11.49-5.64,11.68-11.72.22-7.28-3.52-12.35-11-13.12-6.81-.69-13.69-.15-21.33-.15Zm28.6,36.17c3.09,0,5.45.06,7.8,0,3-.09,5.9.79,8.12-3,1.23-2.1,5-2,7.28.83a6.36,6.36,0,0,0,3.44,2.23,48.33,48.33,0,0,0,8.48.9c2.64.06,4.8-.51,3.5-4.15-2.79-7.86-4.94-16-8.21-23.62-5.08-11.83-2.23-9-14.56-9.19a5.77,5.77,0,0,0-4.39,2.87c-4,10.77-7.56,21.71-11.46,33.18Zm-39.23-19a33.78,33.78,0,0,0,2.28-3.16c2.79-4.89.89-11.65-4.36-12.27-7.8-.91-15.8-.23-23.49-.23V68.86c7.3-1.18,14.21-1.62,20.71-3.5,9.4-2.71,11.22-10,4.86-17.5Zm8.61,58.06,2.27.25,2.37-11.44,8.15,9.83c1.14-1.49.28-4.17-2.53-9,3.92-3.53,5.15-8.62,2.19-12.32a9,9,0,0,0-6.57-3.13c-1.41.1-3,3.25-3.75,5.32-.82,2.32-.8,4.94-1,7.44-.45,4.35-.77,8.71-1.13,13Zm50.42-22.15c-7.78-5-11.84-2.81-11.83,5,0,2.7-.07,5.41.11,8.09.47,7.13,3.45,8.94,12,6.06-3.44-1.25-5.84-2.11-8.4-3,.11-1.91.21-3.66.31-5.34l13.73-.85-.06-1.84-13.67-1.53v-6Zm-26.13.71,7.9-.9-.13-1.61h-10.53c-.44,3.69-.86,7.33-1.29,11s-.84,7.18-1.36,11.55c4.59-1.32,8.46,2.84,13.38-1.54l-9.79-2c.35-2.55.66-4.79.91-6.63l10.75-.74V91.23l-10.11-1.3Zm-45,20.55,2.52,1.43c.18-.81.42-1.6.53-2.41.4-3-.25-7.22,1.42-8.52,1.9-1.48,5.88-.18,8.94-.38.93,0,1.8-1,2.7-1.62-.95-.66-1.86-1.81-2.86-1.89-3-.26-5.93-.1-8.8-.1-1.53-8.87,6.89-4.48,10.1-8.94-4.61,0-8.15-.11-11.66.11-.54,0-1.35,1.5-1.42,2.36-.56,6.66-1,13.31-1.45,20Z" transform="translate(-914.56 26.26)"/><path class="cls-2" d="M1098.06,53c-14.62-2.16-22.58-15.25-18.29-30.58,1.69-6,4.58-11.74,6.71-17,3.62,3.54,6.29,6.38,9.19,9,8,7.09,14.13,14.92,11.75,26.54-.19,1-.32,2.2-1,2.8-6.42,6.08-4.28,13.82-4,21.06a73.08,73.08,0,0,1-9.63,39.55c-10,17.39-25.93,26.86-45.06,30.16-18.17,3.14-36.45,2.57-54.33-3.43-23.23-7.79-35.42-24.64-40-47.68a86.87,86.87,0,0,1,1.66-42.22c6.85-23,23.22-37.1,44.54-45.83,23.62-9.68,46.38-6.1,68,6.71,1.77,1.05,3,2.93,4.56,4.43L1071,7.81a7.27,7.27,0,0,1-2.12-.76C1055.29-3.4,1039.63-6.9,1022.93-6.14c-32.54,1.47-59.53,23-66.17,54.39-4.81,22.79-1.9,45,13.32,64,8.74,10.9,21.2,15.82,34.41,18.54,18.23,3.76,36.45,3.74,54.23-2.72,21.85-7.93,34.62-23.51,38.94-46.2C1099.42,72.36,1100.22,62.92,1098.06,53Zm2.89-7.32c8.29-10.15.26-27.85-14.33-32.53-4.32,9.92-7.66,19.89-.46,29.87,2.59,3.58,5.91,6.8,12,5.48-2-5.94-3.89-11.4-5.61-16.92-.37-1.17-.06-2.56-.06-3.85l2-.12C1096.59,33.58,1098.71,39.5,1101,45.72Z" transform="translate(-914.56 26.26)"/><path class="cls-2" d="M1012.3,30.64c7.68,0,14.56-.54,21.3.15,7.49.77,11.23,5.84,11,13.12-.19,6.08-4.86,10.78-11.68,11.72-2.66.36-5.32.65-8.18,1-.54,2-1.18,3.89-1.52,5.82-1,5.37-8.22,8.94-12.73,6-.85-.55-1.3-2.31-1.26-3.48.21-5.7.53-11.4,1-17.08S1011.55,36.66,1012.3,30.64ZM1023,44l3.64,2.86c1.21-1.78,2.68-3.46,3.45-5.41.23-.58-1.54-1.94-2.4-2.94Z" transform="translate(-914.56 26.26)"/><path class="cls-2" d="M1040.86,66.86c3.9-11.42,7.5-22.36,11.46-33.16a5.77,5.77,0,0,1,4.39-2.87c12.33.14,9.48-2.64,14.56,9.19,3.27,7.64,5.42,15.76,8.21,23.62,1.3,3.64-.86,4.21-3.5,4.15a48.33,48.33,0,0,1-8.48-.9,6.36,6.36,0,0,1-3.44-2.23c-2.28-2.87-6-2.93-7.28-.83-2.22,3.8-5.13,2.92-8.12,3C1046.3,66.86,1044,66.86,1040.86,66.86Zm17.64-14,1.85.17c.77-1.9,2-3.76,2.14-5.71.1-1.13-1.47-2.4-2.29-3.61-.94,1.71-2.24,3.32-2.7,5.14-.3,1.09.63,2.57,1,3.92Z" transform="translate(-914.56 26.26)"/><path class="cls-2" d="M1001.63,47.86c6.36,7.5,4.54,14.83-4.86,17.55-6.5,1.88-13.41,2.32-20.71,3.5V32.16c7.69,0,15.69-.68,23.49.23,5.25.62,7.15,7.38,4.36,12.27A34.35,34.35,0,0,1,1001.63,47.86Zm-8.49,7.39-3.71-3.07a51.45,51.45,0,0,0-3.32,5.69c-.13.31,2.23,2.2,2.39,2.06a53,53,0,0,0,4.64-4.72Zm1.62-11.72-1.39-2.4-2.93-2.58c-1,1.16-2.56,2.24-2.71,3.5s1.38,3.55,2,3.5c1.74-.15,3.37-1.31,5-2.06Z" transform="translate(-914.56 26.26)"/><path class="cls-2" d="M1010.24,105.86c.36-4.35.68-8.71,1.09-13.06.24-2.5.22-5.12,1-7.44.73-2.07,2.34-5.22,3.75-5.32a9,9,0,0,1,6.57,3.13c3,3.7,1.73,8.79-2.19,12.32,2.81,4.84,3.67,7.52,2.53,9l-8.15-9.83-2.37,11.44Zm6.08-22.81c0,3-3.47,6.22,1.4,8,.89.33,3.43-1,3.41-1.43-.15-2.84-.43-6-4.83-6.55Z" transform="translate(-914.56 26.26)"/><path class="cls-2" d="M1060.66,83.73l-7.83.58v6l13.67,1.55.06,1.84-13.73.85c-.1,1.68-.2,3.43-.31,5.34,2.56.94,5,1.8,8.4,3-8.53,2.88-11.51,1.07-12-6.06-.18-2.68-.1-5.39-.11-8.09C1048.82,80.92,1052.88,78.78,1060.66,83.73Z" transform="translate(-914.56 26.26)"/><path class="cls-2" d="M1034.53,84.44l-.31,5.5,10.11,1.3v2.33l-10.75.74c-.25,1.84-.56,4.08-.91,6.63l9.79,2c-4.92,4.38-8.79.22-13.38,1.54.52-4.37.94-8,1.36-11.55s.85-7.27,1.29-11h10.57l.13,1.61Z" transform="translate(-914.56 26.26)"/><path class="cls-2" d="M989.55,105c.47-6.66.89-13.31,1.47-20,.07-.86.88-2.33,1.42-2.36,3.51-.22,7-.11,11.66-.11-3.21,4.46-11.63.07-10.1,8.94,2.87,0,5.85-.16,8.8.1,1,.08,1.91,1.23,2.86,1.89-.9.57-1.77,1.57-2.7,1.62-3.06.2-7-1.1-8.94.38-1.67,1.3-1,5.56-1.42,8.52-.11.81-.35,1.6-.53,2.41Z" transform="translate(-914.56 26.26)"/><path class="cls-1" d="M1101,45.72c-2.24-6.22-4.36-12.14-6.49-18.07l-2,.12c0,1.29-.31,2.68.06,3.85,1.72,5.52,3.62,11,5.61,16.92-6.06,1.32-9.38-1.9-12-5.48-7.2-10-3.86-20,.46-29.87C1101.21,17.86,1109.24,35.57,1101,45.72Z" transform="translate(-914.56 26.26)"/><path class="cls-1" d="M1023,44l4.69-5.49c.86,1,2.63,2.36,2.4,2.94-.77,2-2.24,3.63-3.45,5.41Z" transform="translate(-914.56 26.26)"/><path class="cls-1" d="M1058.5,52.77c-.37-1.35-1.3-2.83-1-4,.46-1.82,1.76-3.43,2.7-5.14.82,1.21,2.39,2.48,2.29,3.61-.16,2-1.37,3.81-2.14,5.71Z" transform="translate(-914.56 26.26)"/><path class="cls-1" d="M993.14,55.21a52.56,52.56,0,0,1-4.64,4.68c-.16.14-2.52-1.75-2.39-2.06a51.45,51.45,0,0,1,3.32-5.69Z" transform="translate(-914.56 26.26)"/><path class="cls-1" d="M994.76,43.49c-1.66.75-3.29,1.91-5,2-.66,0-2.17-2.36-2-3.5s1.74-2.34,2.71-3.5l2.93,2.58Z" transform="translate(-914.56 26.26)"/><path class="cls-1" d="M1016.3,83.07c4.38.54,4.66,3.71,4.81,6.62,0,.46-2.52,1.76-3.41,1.43C1012.85,89.29,1016.37,86,1016.3,83.07Z" transform="translate(-914.56 26.26)"/></svg>