<svg id="Laag_1" data-name="Laag 1" xmlns="http://www.w3.org/2000/svg" viewBox="0 0 205.71 186.82"><defs><style>.cls-1{fill:none;}.cls-2{fill:#95c11f;}</style></defs><path class="cls-1" d="M1049.33,710.74H843.61V523.92h205.72ZM927.6,603.89l1.44.57a24.67,24.67,0,0,0,2.78-3.91c4.19-9.14,5.23-18.73,1.9-28.2-5.3-15-17.92-21.78-32-26.26-1.11-.35-4,1.79-4.55,3.31-4.73,13.14-3,25.85,3.76,37.85,4.76,8.4,11.49,13.78,21.91,12.6a44.67,44.67,0,0,1,4.78,0Zm-37.08-29.43a18.66,18.66,0,0,0-2.76,1.28,11.24,11.24,0,0,0-1.33,1.58c-14.35,20.35-19,42.8-13,66.89,5.2,20.95,16.13,38,37.46,46a87.44,87.44,0,0,0,47.42,4.52c13.9-2.59,27.1-7.53,37.74-17.22,20-18.19,27.9-41.11,24.89-67.75-2.11-18.65-11.41-33.23-27.16-43.38-17.38-11.2-37.26-11.45-57-12.07-1,0-2,1.26-3.07,1.93,1.07.6,2.11,1.63,3.23,1.72,10.34.82,20.79.84,31,2.33,14.84,2.15,27.57,8.68,37.23,20.66,10.11,12.53,13.89,26.85,12.94,42.66-1,16.71-6.45,31.76-17.41,44.5-22.7,26.34-64.14,31.65-94.27,16.51-25.33-12.73-35.13-44-31.26-71.6,1.73-12.32,6.58-23.54,13.66-33.8C889.55,578.25,889.7,576.91,890.52,574.46Zm80.84-7.93c-7.71,1.32-15.32,1.81-22.38,4-10.78,3.39-9.65,1.51-8.72,13.08.14,1.65-.29,3.35-.53,5.77,3.57-2.67,6.6-4.93,9.62-7.21,6.13-4.64,6.48-4.73,9.24-2.09-7.54,6.75-18.06,10.47-22.24,21.45,8.35,3.12,15.68,1,22.37-3.12C969.86,591.51,973.21,580.92,971.36,566.53Zm-69,81.44-.86-1.41-5.83-.95,4.85-6.36.85,4.45,1.84-.29-1-5.93c-1.9.65-4.34.77-5.59,2a131.26,131.26,0,0,0-8.93,11c-.18.23.23.92.36,1.41l2.59-.26,1.57,5.45,1.73.33C891.09,649.3,897.57,649.39,902.35,648ZM928,630.34l0-1.37-3.89-1.36,1.13-.65-2.14-6.66c-2.13.88-4.26,1.75-6.38,2.66a1.51,1.51,0,0,0-.68.77c-.7,2-1.35,4.08-2,6.12,1.87.21,3.74.38,5.6.64a16,16,0,0,0,3,.62C924.4,631,926.2,630.62,928,630.34ZM976.39,627c.06-.14.58-.83.44-1.35-.49-1.81-1.2-3.57-1.82-5.35-2.31,1.19-5.13,1.91-6.75,3.71-1.29,1.43-1.18,4.16-1.5,6.35a4.45,4.45,0,0,0,2.2.81,56.44,56.44,0,0,0,7.91,0c1.12-.11,2.15-1.16,3.22-1.78Zm-57.82,26a6.39,6.39,0,0,0,.38-2.18c-.42-1.79-1-3.53-1.55-5.29-2.45,1.55-5.28,2.73-7.19,4.78-1,1.08-.43,3.66-.5,5.56,0,.12.59.37.9.36,3.67-.11,7.33-.21,11-.46.4,0,.74-1,1.35-1.87Zm76.86,3-1.73-1c-.88,1.68-2.2,3.31-2.42,5.08-.08.65,2.69,2.54,3.69,2.25,1.85-.53,4.79-2.33,4.73-3.47-.16-3.06-1.63-6.06-2.65-9.05a14.33,14.33,0,0,0-1.26-2.24l4.22-1.42-.42-1.84c-1.92.43-4.42.32-5.56,1.5-.76.79.06,3.59.78,5.22s2.67,2.8,3.25,4.46c1.08,3-.95,4.53-4.56,3.49ZM934.32,633.5c-.73-6.1.65-9.32,7.3-9.22-7.74-4.38-.57-8.47-2.18-12.8-1.83,2.37-2.61,5.31-4.3,7.56-1.8,2.4-4.46,4.15-6.33,5.82ZM947,649.23c-3-2.09-4.5-4-6-4-3.66-.12-5.91,2.19-5.21,5.95.34,1.8,2,3.35,3.09,5Zm-39-25.92.55,7.55c2.71-3.22,4.24-6.79,1-9.65-1.15-1-5-.55-6.42.63-2.79,2.3-3.36,5.81-2,10.41Zm37.39-3.06c-3.28,2.62-4,5.93-2.21,9.09.55.94,4,1.37,5.09.6,3.12-2.2,4.94-5.4,4-10.56-2.14,3.39-3.63,5.75-5.11,8.11l-1.08-.38Zm33.15,34.08,1.92.75,6.12-8.2c.26,3.2.43,5.2.59,7.19l2-.16c-.2-2.8.06-5.77-.87-8.3-.28-.76-5-1.17-5.7-.25C980.71,647.93,979.84,651.29,978.56,654.33Zm-25.76-2-1.26-.46-1-7.53h-1.63a52.53,52.53,0,0,0-.68,7.67c.17,3.41,2.9,4.12,5.18,2.7,3.34-2.1,5.39-5.36,4.46-10.56C955.91,647.38,954.36,649.88,952.8,652.37ZM955,630.63l2.35,1c1.91-4.84,3.66-9.85,10.87-9.24-4.39-5-7.94-2.15-10.08-.09C956.17,624.14,956,627.78,955,630.63ZM991.25,615l-2-.5-6.45,17.06,2.19.76C987.08,626.52,990.73,621.29,991.25,615Zm-57.61,30.2-1.18-.78-4.66,6.29-2.45-4.89-1.54.64,3,10,1.64,0ZM973,646.36l-1-2.59-10,2.63v8.5C964.29,650.28,966.68,646.17,973,646.36Zm-63-5.47-2.31-.63q-3,8.18-6.05,16.36l2,.73Z" transform="translate(-843.61 -523.92)"/><path class="cls-2" d="M927.6,603.89v-4.06a44.67,44.67,0,0,0-4.78,0c-10.42,1.18-17.15-4.2-21.91-12.6-6.81-12-8.49-24.71-3.76-37.85.55-1.52,3.44-3.66,4.55-3.31,14.1,4.48,26.72,11.24,32,26.26,3.33,9.47,2.29,19.06-1.9,28.2a24.67,24.67,0,0,1-2.78,3.91Zm-22.28-49L904,555c-.08,1.31-.72,3-.16,3.89q10.4,17.36,21.19,34.47c.57.9,2.43,1,3.69,1.46-.15-1.23.08-2.69-.51-3.65-6.83-11.22-13.79-22.38-20.74-33.54A32.23,32.23,0,0,0,905.32,554.89Z" transform="translate(-843.61 -523.92)"/><path class="cls-2" d="M890.52,574.46c-.82,2.45-1,3.79-1.65,4.77-7.08,10.26-11.93,21.48-13.66,33.8-3.87,27.62,5.93,58.87,31.26,71.6,30.13,15.14,71.57,9.83,94.27-16.51,11-12.74,16.42-27.79,17.41-44.5,1-15.81-2.83-30.13-12.94-42.66-9.66-12-22.39-18.51-37.23-20.66-10.24-1.49-20.69-1.51-31-2.33-1.12-.09-2.16-1.12-3.23-1.72,1-.67,2.06-2,3.07-1.93,19.7.62,39.58.87,57,12.07,15.75,10.15,25,24.73,27.16,43.38,3,26.64-4.93,49.56-24.89,67.75-10.64,9.69-23.84,14.63-37.74,17.22a87.44,87.44,0,0,1-47.42-4.52c-21.33-8-32.26-25.06-37.46-46-6-24.09-1.32-46.54,13-66.89a11.24,11.24,0,0,1,1.33-1.58A18.66,18.66,0,0,1,890.52,574.46Z" transform="translate(-843.61 -523.92)"/><path class="cls-2" d="M971.36,566.53c1.85,14.39-1.5,25-12.64,31.91-6.69,4.16-14,6.24-22.37,3.12,4.18-11,14.7-14.7,22.24-21.45-2.76-2.64-3.11-2.55-9.24,2.09-3,2.28-6.05,4.54-9.62,7.21.24-2.42.67-4.12.53-5.77-.93-11.57-2.06-9.69,8.72-13.08C956,568.34,963.65,567.85,971.36,566.53Z" transform="translate(-843.61 -523.92)"/><path class="cls-2" d="M902.35,648c-4.78,1.42-11.26,1.33-8.43,9.45l-1.73-.33-1.57-5.45-2.59.26c-.13-.49-.54-1.18-.36-1.41a131.26,131.26,0,0,1,8.93-11c1.25-1.28,3.69-1.4,5.59-2l1,5.93-1.84.29-.85-4.45-4.85,6.36,5.83.95Z" transform="translate(-843.61 -523.92)"/><path class="cls-2" d="M928,630.34c-1.82.28-3.62.67-5.45.77a16,16,0,0,1-3-.62c-1.86-.26-3.73-.43-5.6-.64.66-2,1.31-4.09,2-6.12a1.51,1.51,0,0,1,.68-.77c2.12-.91,4.25-1.78,6.38-2.66l2.14,6.66-1.13.65L928,629Z" transform="translate(-843.61 -523.92)"/><path class="cls-2" d="M976.39,627l3.7,2.4c-1.07.62-2.1,1.67-3.22,1.78a56.44,56.44,0,0,1-7.91,0,4.45,4.45,0,0,1-2.2-.81c.32-2.19.21-4.92,1.5-6.35,1.62-1.8,4.44-2.52,6.75-3.71.62,1.78,1.33,3.54,1.82,5.35C977,626.17,976.45,626.86,976.39,627Z" transform="translate(-843.61 -523.92)"/><path class="cls-2" d="M918.57,653l4.38.9c-.61.88-1,1.84-1.35,1.87-3.66.25-7.32.35-11,.46-.31,0-.9-.24-.9-.36.07-1.9-.51-4.48.5-5.56,1.91-2,4.74-3.23,7.19-4.78.53,1.76,1.13,3.5,1.55,5.29A6.39,6.39,0,0,1,918.57,653Z" transform="translate(-843.61 -523.92)"/><path class="cls-2" d="M995.43,656l-1.93,3c3.61,1,5.64-.44,4.56-3.49-.58-1.66-2.52-2.82-3.25-4.46s-1.54-4.43-.78-5.22c1.14-1.18,3.64-1.07,5.56-1.5l.42,1.84-4.22,1.42a14.33,14.33,0,0,1,1.26,2.24c1,3,2.49,6,2.65,9.05.06,1.14-2.88,2.94-4.73,3.47-1,.29-3.77-1.6-3.69-2.25.22-1.77,1.54-3.4,2.42-5.08Z" transform="translate(-843.61 -523.92)"/><path class="cls-2" d="M934.32,633.5l-5.51-8.64c1.87-1.67,4.53-3.42,6.33-5.82,1.69-2.25,2.47-5.19,4.3-7.56,1.61,4.33-5.56,8.42,2.18,12.8C935,624.18,933.59,627.4,934.32,633.5Z" transform="translate(-843.61 -523.92)"/><path class="cls-2" d="M947,649.23l-8.17,6.92c-1.07-1.66-2.75-3.21-3.09-5-.7-3.76,1.55-6.07,5.21-5.95C942.51,645.25,944,647.14,947,649.23Z" transform="translate(-843.61 -523.92)"/><path class="cls-2" d="M908,623.31l-6.84,8.94c-1.35-4.6-.78-8.11,2-10.41,1.45-1.18,5.27-1.64,6.42-.63,3.2,2.86,1.67,6.43-1,9.65Z" transform="translate(-843.61 -523.92)"/><path class="cls-2" d="M945.41,620.25l.69,6.86,1.08.38c1.48-2.36,3-4.72,5.11-8.11.94,5.16-.88,8.36-4,10.56-1.11.77-4.54.34-5.09-.6C941.36,626.18,942.13,622.87,945.41,620.25Z" transform="translate(-843.61 -523.92)"/><path class="cls-2" d="M978.56,654.33c1.28-3,2.15-6.4,4.06-9,.69-.92,5.42-.51,5.7.25.93,2.53.67,5.5.87,8.3l-2,.16c-.16-2-.33-4-.59-7.19l-6.12,8.2Z" transform="translate(-843.61 -523.92)"/><path class="cls-2" d="M952.8,652.37c1.56-2.49,3.11-5,5.1-8.18.93,5.2-1.12,8.46-4.46,10.56-2.28,1.42-5,.71-5.18-2.7a52.53,52.53,0,0,1,.68-7.67h1.63l1,7.53Z" transform="translate(-843.61 -523.92)"/><path class="cls-2" d="M955,630.63c1-2.85,1.2-6.49,3.14-8.34,2.14-2.06,5.69-5,10.08.09-7.21-.61-9,4.4-10.87,9.24Z" transform="translate(-843.61 -523.92)"/><path class="cls-2" d="M991.25,615c-.52,6.32-4.17,11.55-6.26,17.32l-2.19-.76,6.45-17.06Z" transform="translate(-843.61 -523.92)"/><path class="cls-2" d="M933.64,645.17l-5.2,11.28-1.64,0-3-10,1.54-.64,2.45,4.89,4.66-6.29Z" transform="translate(-843.61 -523.92)"/><path class="cls-2" d="M973,646.36c-6.35-.19-8.74,3.92-11,8.54v-8.5l10-2.63Z" transform="translate(-843.61 -523.92)"/><path class="cls-2" d="M910,640.89l-6.34,16.46-2-.73q3-8.18,6.05-16.36Z" transform="translate(-843.61 -523.92)"/><path class="cls-1" d="M905.32,554.89a32.23,32.23,0,0,1,2.11,2.74c7,11.16,13.91,22.32,20.74,33.54.59,1,.36,2.42.51,3.65-1.26-.47-3.12-.56-3.69-1.46q-10.8-17.11-21.19-34.47c-.56-.93.08-2.58.16-3.89Z" transform="translate(-843.61 -523.92)"/></svg>