<svg id="Laag_1" data-name="Laag 1" xmlns="http://www.w3.org/2000/svg" viewBox="0 0 205.44 198.87"><defs><style>.cls-1{fill:none;}.cls-2{fill:#95c11f;}</style></defs><path class="cls-1" d="M672.09-97H466.65V-295.85H672.09ZM578.6-114c5-.61,11-.74,16.75-2.14,32.28-7.94,65.85-41.73,57.83-85.59-1.32-7.24-5.33-14-8.3-20.91-.43-1-2-1.49-3-2.21a21,21,0,0,0,.26,3.63,10.12,10.12,0,0,0,1.3,2.34,61.46,61.46,0,0,1,6.48,42.19c-3.89,20-15.34,34.64-31.33,46.28-17.25,12.55-36.55,15.45-57,11.24-14.14-2.91-28.32-6.55-39.11-17-15.69-15.11-21.41-34-19.17-55.48,2.37-22.85,12.53-41.26,31.5-54.29a68.62,68.62,0,0,1,39-12.39c1.45,0,2.89-1.23,4.34-1.88a38.19,38.19,0,0,0-4.78-1.25,18.5,18.5,0,0,0-3.79.27c-24,1.88-43.06,12.67-56.43,32.53-11.08,16.46-15.82,34.74-12.91,54.84,2.36,16.34,8.51,30.64,21.4,41.17,16.23,13.3,35.75,17.14,57,18.68Zm7.77-55.7c1.85,0,3.6-.45,5,.08,5.37,2.1,8.65-.54,11.25-4.66,3.26-5.17,6.8-10.26,9.28-15.8a13.79,13.79,0,0,0,.24-9.64c-1.7-4.42-4.84-8.29-7.55-12.67-4.24,2.42-7.9,4.68-11.71,6.62-2.74,1.4-3,2.95-1.55,5.54,2.54,4.65,4.78,9.46,7.64,15.18l-12.75-1.31c-.15-2.53-.29-4.83-.43-7.12-2.33,2.12-3.08,4.57-4.55,6.48-4.6,6-4.62,11.73-.2,17.78a58,58,0,0,1,3.77,6.87l1-.59c.13-2.08.33-4.18.56-6.77ZM596.09-225a75,75,0,0,0-3.76-6.81c-1.07-1.55-2.58-3.83-4-3.93a182,182,0,0,0-23-.38,12.13,12.13,0,0,0-8.11,4.11c-3,3.89-4.81,8.7-7.27,13.43l15.21,8.3,11.09-17.15,6,11-6.35,4.8c13.53,1.59,22.9-2.47,26.67-16Zm-53.72,19.1c-1,1.69-1.55,3.53-2.76,4.73-3.94,3.91-3.1,8-.88,12.22,2.43,4.61,5,9.15,7.63,13.67,2.14,3.69,4.66,6.83,9.59,6.7,4.73-.12,9.48,0,14.46,0v-17.24l-20-1.74L556.8-198l7,3.14A53.27,53.27,0,0,0,557.42-206c-.89-1.28-1.7-3.49-2.77-3.64-5.57-.79-11.2-1-16.8-1.49l-.32,1.15Zm-1.09,70.11,1.43.46c.75-6.68,7.23-8.63,10.74-13,.33-.41.78-1.16.63-1.44-1.28-2.29-2.2-5.45-4.19-6.48-2.16-1.13-6.2-1.48-6.83,2.64-.91,6-1.22,12-1.78,17.85Zm40-22.74c-1.43,7.69-4.63,14.67-2.24,22.47,7.91-2.79,11.32-7,11.4-12.81s-3.48-8.12-9.17-9.63Zm-10.44,1.34c-7.3,1.32-11.81,4.83-12.48,10.68-.28,2.44.66,6.43,2.33,7.32s5.61-.25,7.55-1.78c5-3.87,5.63-9.57,2.59-16.19Zm35.88-97.84c.58-3.67-2-3.95-5-3.89-5.08.1-9.75,3.82-9.91,8s2.9,5.3,5.89,5.68c4.56.6,9.07-4.4,9-9.76ZM594.79-138.16c3.39,2.2,8.12,1,10.54-2.55,4.27-6.22-2.68-6.62-5.88-10.07l9-3.42c-4.7-3.59-8.38-2-10.49,1.07-3.49,5,1.72,6.9,6,9.92Zm11-102.54c1.19.73,3.08,2.78,5.16,3,4.12.41,10.46-5.74,9.53-9.21a7.24,7.24,0,0,0-4.92-4.24c-4.72-.65-9.73,4.25-9.73,10.46Zm-22-10.84,2.17,1.23,11-13.21H585.73l-.2,1.06,3.89,2.11ZM640-236.24c-3.94-3.62-18.54-.9-21.38,3.79Z" transform="translate(-466.65 295.85)"/><path class="cls-2" d="M578.6-113.95c-21.21-1.54-40.73-5.38-56.91-18.6-12.89-10.53-19-24.83-21.4-41.17-2.91-20.1,1.83-38.38,12.91-54.84,13.37-19.86,32.47-30.65,56.44-32.53a18.36,18.36,0,0,1,3.78-.27,38.19,38.19,0,0,1,4.78,1.25c-1.45.65-2.89,1.87-4.34,1.88a68.62,68.62,0,0,0-39,12.39c-19,13-29.13,31.44-31.5,54.29-2.24,21.5,3.48,40.37,19.17,55.48,10.79,10.4,25,14,39.11,17,20.45,4.21,39.75,1.31,57-11.24,16-11.64,27.44-26.28,31.33-46.28a61.46,61.46,0,0,0-6.48-42.19,10.12,10.12,0,0,1-1.3-2.34,21,21,0,0,1-.26-3.63c1,.72,2.58,1.22,3,2.21,3,6.9,7,13.67,8.3,20.91,8,43.86-25.55,77.65-57.83,85.59C589.63-114.69,583.6-114.56,578.6-113.95Z" transform="translate(-466.65 295.85)"/><path class="cls-2" d="M586.37-169.69c-.23,2.55-.44,4.65-.62,6.76l-1,.59a58,58,0,0,0-3.77-6.87c-4.43-6-4.41-11.81.19-17.78,1.47-1.91,2.22-4.36,4.56-6.48.14,2.29.28,4.59.43,7.12L598.91-185c-2.86-5.72-5.1-10.53-7.64-15.18-1.42-2.59-1.19-4.14,1.55-5.54,3.81-1.94,7.47-4.2,11.71-6.62,2.71,4.38,5.85,8.25,7.55,12.67a13.79,13.79,0,0,1-.24,9.64c-2.48,5.54-6,10.63-9.28,15.8-2.6,4.12-5.88,6.76-11.25,4.66C590-170.1,588.22-169.69,586.37-169.69Z" transform="translate(-466.65 295.85)"/><path class="cls-2" d="M596.09-225l6.51-2.66c-3.77,13.57-13.14,17.63-26.67,16l6.35-4.8-6-11-11.09,17.15L550-218.63c2.46-4.73,4.27-9.54,7.27-13.43a12.13,12.13,0,0,1,8.11-4.11,182,182,0,0,1,23,.38c1.44.1,3,2.38,4,3.93A74.18,74.18,0,0,1,596.09-225Z" transform="translate(-466.65 295.85)"/><path class="cls-2" d="M542.37-205.92l-4.94-4,.32-1.15c5.6.44,11.24.7,16.8,1.49,1.07.15,1.88,2.36,2.77,3.64a53.27,53.27,0,0,1,6.38,11.11l-7-3.14-6.39,10.4,20,1.74v17.25c-5,0-9.73-.1-14.46,0-4.93.13-7.45-3-9.59-6.7-2.61-4.52-5.2-9.06-7.63-13.67-2.22-4.19-3.06-8.31.88-12.22C540.82-202.39,541.41-204.23,542.37-205.92Z" transform="translate(-466.65 295.85)"/><path class="cls-2" d="M541.28-135.81c.56-5.89.87-11.92,1.78-17.85.63-4.12,4.67-3.77,6.83-2.64,2,1,2.91,4.19,4.18,6.48.16.28-.3,1-.63,1.44-3.51,4.4-10,6.35-10.74,13Z" transform="translate(-466.65 295.85)"/><path class="cls-2" d="M581.27-158.55c5.68,1.51,9.24,3.87,9.16,9.66s-3.49,10-11.4,12.81C576.64-143.88,579.84-150.86,581.27-158.55Zm.22,17.09,2,.77c1.29-2.84,3-5.58,3.66-8.56.27-1.29-1.78-3.07-2.78-4.62l-1.34.63Z" transform="translate(-466.65 295.85)"/><path class="cls-2" d="M570.83-157.21c3,6.62,2.36,12.32-2.6,16.22-1.94,1.53-5.79,2.72-7.55,1.78s-2.61-4.88-2.33-7.32C559-152.38,563.53-155.89,570.83-157.21Zm-3.59,2.34c-2.39,3.75-4.44,6.56-5.92,9.65-.28.58,2,3.4,2.69,3.26,4.14-.91,6.35-7.73,3.23-12.91Z" transform="translate(-466.65 295.85)"/><path class="cls-2" d="M606.71-255c.06,5.35-4.45,10.36-9,9.79-3-.38-6-1.59-5.89-5.68s4.83-7.9,9.91-8C604.73-259,607.29-258.69,606.71-255Zm-11.81,5.5c5.61,1.25,7.9-1,8.84-6.07C599-256.26,596.18-254.76,594.9-249.55Z" transform="translate(-466.65 295.85)"/><path class="cls-2" d="M594.78-138.13l9.23-5c-4.3-3-9.5-4.88-6-9.92,2.11-3,5.79-4.66,10.49-1.07l-9,3.42c3.19,3.45,10.15,3.85,5.88,10.07C602.9-137.16,598.17-135.93,594.78-138.13Z" transform="translate(-466.65 295.85)"/><path class="cls-2" d="M605.83-240.69c0-6.23,5-11.13,9.77-10.46a7.24,7.24,0,0,1,4.92,4.24c.93,3.47-5.41,9.62-9.53,9.21C608.91-237.89,607-239.94,605.83-240.69Zm9.19-8.48-6.08,6.72c.63.52,1.44,1.62,1.84,1.48,3.2-1.05,6.66-2.08,4.26-8.18Z" transform="translate(-466.65 295.85)"/><path class="cls-2" d="M583.79-251.51l5.67-8.81-3.89-2.11.2-1.06H597l-11,13.21Z" transform="translate(-466.65 295.85)"/><path class="cls-2" d="M640-236.24l-21.38,3.79C621.52-237.14,636.12-239.86,640-236.24Z" transform="translate(-466.65 295.85)"/><path class="cls-1" d="M581.49-141.46,583-153.24l1.3-.63c1,1.55,3,3.33,2.7,4.62-.61,3-2.32,5.72-3.57,8.56Z" transform="translate(-466.65 295.85)"/><path class="cls-1" d="M567.24-154.87c3.12,5.22.91,12-3.23,12.91-.69.14-3-2.68-2.69-3.26C562.8-148.31,564.85-151.12,567.24-154.87Z" transform="translate(-466.65 295.85)"/><path class="cls-1" d="M594.9-249.55c1.28-5.21,4.09-6.71,8.84-6.07C602.8-250.54,600.51-248.3,594.9-249.55Z" transform="translate(-466.65 295.85)"/><path class="cls-1" d="M615-249.15c2.42,6.1-1,7.13-4.24,8.2-.4.14-1.21-1-1.84-1.48Z" transform="translate(-466.65 295.85)"/></svg>