<svg id="Laag_1" data-name="Laag 1" xmlns="http://www.w3.org/2000/svg" viewBox="0 0 892.59 467.12"><defs><style>.cls-1{fill:none;}.cls-2{fill:#fff;}</style></defs><g id="S4XEGC.tif"><path class="cls-1" d="M-892.86,91.65H-.27V558.77H-892.86Zm678.35,343.63c1.84.66,3,1,4.11,1.49a51.48,51.48,0,0,0,29.2,2.75c30.72-5.6,51.12-30,51.25-61.46q.24-54.42,0-108.83a61.11,61.11,0,0,0-74.61-59.52c-28.14,6.25-48,31.2-48,60.57q-.07,51.08,0,102.14,0,80.79,0,161.57c0,8.39,4,11.15,12,8.25l17.78-6.48c7-2.54,8.28-4.38,8.28-11.75q0-41.79,0-83.57Zm-423-139.23c0-27.35.07-54.7-.07-82.05a54.29,54.29,0,0,0-1.63-13.2c-7.12-27.4-34.82-43.71-63.08-36.14-13.18,3.53-25.74,9.42-38.49,14.47-3.67,1.45-4.75,5.18-3.24,9.46,2.29,6.53,4.7,13,7.09,19.52,2,5.4,5.29,6.91,10.75,4.93,9.07-3.29,18.1-6.71,27.21-9.9,12.44-4.34,23.63,3.55,23.72,16.68.07,9.53-.15,19.06.1,28.58.1,4-1.33,6-5,7.52-13.74,5.61-27.37,11.48-41,17.26-24.55,10.39-38.79,31.81-38.79,58.4q0,23.21,0,46.41c0,36,31.65,64.3,67.48,60.48a61,61,0,0,0,55-61.11Q-637.46,336.7-637.47,296.05ZM-299,336.17q0-47.18,0-94.34c0-7-4.21-10-10.72-7.63S-323,239-329.66,241.44c-5.81,2.13-7.3,4.23-7.31,10.5,0,10.15,0,20.3,0,30.45q0,72.24,0,144.48c0,10.69-6.64,19.93-16.31,22.82-15.61,4.66-30.46-6.5-30.47-23q0-83.39,0-166.77c0-7.95-4-10.72-11.48-8l-17.45,6.32c-7.88,2.84-9,4.38-9,12.76q0,68.72,0,137.42c0,7.43-.1,14.86.2,22.28,1.46,36.28,36.09,63.74,71.74,57,30-5.67,50.63-30.48,50.66-60.93Q-299,381.49-299,336.17ZM-506.26,267.5V387.79c0,7,4.05,9.91,10.71,7.57,6.19-2.18,12.32-4.49,18.49-6.72,7.59-2.76,8.62-4.19,8.62-12.17v-209c0-6.95,1.29-8.78,7.9-11.19,12.55-4.58,25.12-9.11,37.64-13.76,5.18-1.91,6.63-5.06,4.83-10.2-2.21-6.3-4.55-12.56-6.83-18.84-2.62-7.25-5.42-8.55-12.72-5.89q-26.65,9.72-53.32,19.44c-10.25,3.75-15.32,11.05-15.32,22.06Zm-84.38,13.74q0,62.19,0,124.37c0,6.61,4,9.54,10.23,7.38,7-2.44,14-5,20.91-7.62,4.89-1.83,6.54-4.27,6.54-9.55q0-124,0-248c0-6.93-4.23-9.95-10.71-7.64s-13,4.77-19.52,7.13c-6.17,2.24-7.46,4-7.46,10.68Z" transform="translate(892.86 -91.65)"/><path class="cls-2" d="M-214.51,435.28v5.16q0,41.78,0,83.57c0,7.37-1.31,9.21-8.28,11.75l-17.78,6.48c-8,2.9-12,.14-12-8.25q0-80.79,0-161.57,0-51.06,0-102.14c0-29.37,19.86-54.32,48-60.57a61.11,61.11,0,0,1,74.61,59.52q.23,54.42,0,108.83c-.13,31.45-20.53,55.86-51.25,61.46a51.48,51.48,0,0,1-29.2-2.75C-211.52,436.31-212.67,435.94-214.51,435.28Zm0-110.82c0,18.32-.12,36.64,0,55a23.19,23.19,0,0,0,23.29,23.06,23.27,23.27,0,0,0,23.39-23.38q.09-54.77-.06-109.54a25.23,25.23,0,0,0-1.95-9.34A23.09,23.09,0,0,0-195.9,246.6a23.24,23.24,0,0,0-18.57,22.91C-214.58,287.83-214.5,306.15-214.5,324.46Z" transform="translate(892.86 -91.65)"/><path class="cls-2" d="M-637.47,296.05q0,40.65,0,81.31a61,61,0,0,1-55,61.11c-35.83,3.82-67.44-24.5-67.48-60.48q0-23.21,0-46.41c0-26.59,14.24-48,38.79-58.4,13.68-5.78,27.31-11.65,41-17.26,3.65-1.49,5.08-3.55,5-7.52-.25-9.52,0-19.05-.1-28.58-.09-13.13-11.28-21-23.72-16.68-9.11,3.19-18.14,6.61-27.21,9.9-5.46,2-8.75.47-10.75-4.93-2.39-6.49-4.8-13-7.09-19.52-1.51-4.28-.43-8,3.24-9.46,12.75-5,25.31-10.94,38.49-14.47,28.26-7.57,56,8.74,63.08,36.14a54.29,54.29,0,0,1,1.63,13.2C-637.4,241.35-637.47,268.7-637.47,296.05Zm-38-1.32c-12.21,5.38-24,10.12-35.39,15.78a19.62,19.62,0,0,0-11,17.78q-.48,25.59,0,51.19c.16,9.21,7.18,17.58,15.95,20.33a23.5,23.5,0,0,0,30.7-22.32c.16-26.59,0-53.18,0-79.77C-675.2,297-675.32,296.28-675.45,294.73Z" transform="translate(892.86 -91.65)"/><path class="cls-2" d="M-299,336.17q0,45.32,0,90.62c0,30.45-20.69,55.26-50.66,60.93-35.65,6.75-70.28-20.71-71.74-57-.3-7.42-.2-14.85-.2-22.28q0-68.71,0-137.42c0-8.38,1.09-9.92,9-12.76l17.45-6.32c7.48-2.71,11.48.06,11.48,8q0,83.39,0,166.77c0,16.46,14.86,27.62,30.47,23,9.67-2.89,16.3-12.13,16.31-22.82q0-72.24,0-144.48c0-10.15,0-20.3,0-30.45,0-6.27,1.5-8.37,7.31-10.5,6.63-2.43,13.24-4.87,19.88-7.24s10.71.65,10.72,7.63Q-299,289-299,336.17Z" transform="translate(892.86 -91.65)"/><path class="cls-2" d="M-506.26,267.5V149.06c0-11,5.07-18.31,15.32-22.06q26.65-9.73,53.32-19.44c7.3-2.66,10.1-1.36,12.72,5.89,2.28,6.28,4.62,12.54,6.83,18.84,1.8,5.14.35,8.29-4.83,10.2-12.52,4.65-25.09,9.18-37.64,13.76-6.61,2.41-7.9,4.24-7.9,11.19v209c0,8-1,9.41-8.62,12.17-6.17,2.23-12.3,4.54-18.49,6.72-6.66,2.34-10.7-.54-10.71-7.57Z" transform="translate(892.86 -91.65)"/><path class="cls-2" d="M-590.64,281.24V158c0-6.66,1.29-8.44,7.46-10.68,6.51-2.36,13-4.81,19.52-7.13s10.71.71,10.71,7.64q0,124,0,248c0,5.28-1.65,7.72-6.54,9.55-7,2.59-13.9,5.18-20.91,7.62-6.2,2.16-10.23-.77-10.23-7.38Q-590.66,343.44-590.64,281.24Z" transform="translate(892.86 -91.65)"/><path class="cls-1" d="M-214.5,324.46c0-18.31-.08-36.63,0-54.95A23.24,23.24,0,0,1-195.9,246.6a23.09,23.09,0,0,1,26.11,13.62,25.23,25.23,0,0,1,1.95,9.34q.19,54.76.06,109.54a23.27,23.27,0,0,1-23.39,23.38,23.19,23.19,0,0,1-23.29-23.06C-214.62,361.1-214.5,342.78-214.5,324.46Z" transform="translate(892.86 -91.65)"/><path class="cls-1" d="M-675.45,294.73c.13,1.55.25,2.27.25,3,0,26.59.12,53.18,0,79.77a23.5,23.5,0,0,1-30.7,22.32c-8.77-2.75-15.79-11.12-15.95-20.33q-.47-25.59,0-51.19a19.62,19.62,0,0,1,11-17.78C-699.49,304.85-687.66,300.11-675.45,294.73Z" transform="translate(892.86 -91.65)"/></g></svg>